<svg width="80" height="20" viewBox="0 0 80 20" fill="none" xmlns="http://www.w3.org/2000/svg">
<mask id="mask0_958_141" style="mask-type:luminance" maskUnits="userSpaceOnUse" x="0" y="0" width="26" height="18">
<path d="M0 0H25.7561V18H0V0Z" fill="white"/>
</mask>
<g mask="url(#mask0_958_141)">
<path fill-rule="evenodd" clip-rule="evenodd" d="M7.5 5.38584L6.90777 5.9773L7.5846 6.65261L6.90244 7.33325L7.5846 8.01389L6.90244 8.69453L6.22104 8.01389L6.90244 7.33325L6.22104 6.65261L4.98399 7.88736L5.6654 8.568L4.99466 9.24864L6.3529 10.6046L4.98933 11.9659L4.30716 11.2852L3.64634 11.9445L4.93674 13.2479L4.25457 13.9285L5.61814 15.2898L4.93674 15.9704L5.61814 16.6511L6.3003 15.9704L6.98171 16.6511L7.66387 15.9704L6.98171 15.2898L7.66387 14.6092L6.98171 13.9285L7.66387 13.2479L6.98171 12.5672L7.66387 11.8866L8.34527 12.5672L7.66387 13.2479L8.34527 13.9285L7.66387 14.6092L8.34527 15.2898L10.391 13.2479L9.70884 12.5672L10.391 11.8866L11.0724 12.5672L11.7706 11.8706L12.2934 11.3485L12.8857 10.7578L13.4779 11.3485L14.0008 11.8706L14.6989 12.5672L15.3803 11.8866L16.0625 12.5672L15.3803 13.2479L17.4261 15.2898L18.1075 14.6092L18.7896 15.2898L18.1075 15.9704L18.7896 16.6511L19.471 15.9704L20.1532 16.6511L20.8354 15.9704L20.1532 15.2898L21.5168 13.9285L22.1989 14.6092L22.8803 13.9285L22.1989 13.2479L21.5168 13.9285L20.8247 13.2479L22.1143 11.9445L21.4535 11.2852L20.7713 11.9659L19.4078 10.6046L20.766 9.24864L20.0846 8.568L20.766 7.88736L19.5297 6.65261L18.8476 7.33325L19.5297 8.01389L18.8476 8.69453L18.1662 8.01389L18.8476 7.33325L18.1662 6.65261L18.5038 6.31495L18.8422 5.9773L18.2508 5.38584L12.8803 0.0146484L7.5 5.38584ZM16.0518 9.84468L16.7332 9.16404L17.4154 9.84468L16.7332 10.5253L16.0518 9.84468ZM8.34527 9.85002L9.02744 9.16937L9.70884 9.85002L9.02744 10.5307L8.34527 9.85002ZM18.0442 10.6046L18.7264 9.92395L19.4078 10.6046L18.7264 11.2852L18.0442 10.6046ZM6.3529 10.6046L7.03506 9.92395L7.71646 10.6046L7.03506 11.2852L6.3529 10.6046ZM14.6936 11.206L15.375 10.5253L16.0572 11.206L15.375 11.8866L14.6936 11.206ZM9.70351 11.206L10.3857 10.5253L11.0678 11.206L10.3857 11.8866L9.70351 11.206ZM16.7332 11.8866L17.4154 12.5672L16.7332 13.2479L16.0518 12.5672L16.7332 11.8866ZM9.0221 11.8866L9.70351 12.5672L9.0221 13.2479L8.33994 12.5672L9.0221 11.8866ZM18.0968 11.8866L18.779 12.5672L18.0968 13.2479L18.779 13.9285L18.0968 14.6092L17.4154 13.9285L18.0968 13.2479L17.4154 12.5672L18.0968 11.8866ZM19.4611 11.8866L20.8247 13.2479L20.1425 13.9285L18.779 12.5672L19.4611 11.8866ZM6.3003 11.8866L6.98171 12.5672L5.61814 13.9285L4.93674 13.2479L6.3003 11.8866ZM18.779 15.2845L19.4611 14.6038L20.1425 15.2845L19.4611 15.9651L18.779 15.2845ZM5.61814 15.2845L6.3003 14.6038L6.98171 15.2845L6.3003 15.9651L5.61814 15.2845ZM20.766 9.24864L21.4482 8.568L22.1303 9.24864L21.4482 9.92928L22.1303 10.6099L21.4482 11.2906L20.7713 10.6099L21.4535 9.92928L20.766 9.24864ZM3.6311 9.24864L4.3125 8.568L4.99466 9.24864L4.3125 9.92928L4.99466 10.6099L4.3125 11.2906L3.6311 10.6099L4.3125 9.92928L3.6311 9.24864ZM22.1303 10.6099L22.8117 9.92928L23.4939 10.6099L22.8117 11.2906L22.1303 10.6099ZM2.26753 10.6099L2.94893 11.2906L3.6311 10.6099L2.94893 9.92928L2.26753 10.6099ZM23.33 12.4041L23.8216 12.8942L24.3133 12.4041L23.8216 11.9133L23.33 12.4041ZM1.44817 12.4041L1.93979 12.8942L2.4314 12.4041L1.93979 11.9133L1.44817 12.4041ZM2.89634 13.9285L3.57774 13.2479L4.25991 13.9285L3.57774 14.6092L2.89634 13.9285ZM25.1319 13.6282L25.4444 13.9445L25.7561 13.6336L25.439 13.3165L25.1319 13.6282ZM0 13.6336L0.311738 13.9445L0.623476 13.6282L0.317073 13.3165L0 13.6336ZM23.5625 13.7334L23.8742 14.0497L24.186 13.7387L23.8689 13.4278L23.5625 13.7334ZM1.56936 13.7334L1.8811 14.0451L2.19284 13.7281L1.8811 13.4171L1.56936 13.7334ZM22.8277 15.3111L23.3194 14.8203L23.811 15.3111L23.3194 15.802L22.8277 15.3111ZM1.9497 15.3111L2.44131 15.802L2.93293 15.3111L2.44131 14.8203L1.9497 15.3111ZM24.968 15.5383L25.2851 15.8493L25.5976 15.5383L25.2851 15.2265L24.968 15.5383ZM0.163872 15.5383L0.47561 15.8493L0.792683 15.5383L0.47561 15.2212L0.163872 15.5383ZM20.8247 15.9651L21.5061 15.2845L22.1883 15.9651L21.5061 16.6457L20.8247 15.9651ZM3.57241 15.9704L4.25457 15.2898L4.93674 15.9704L4.25457 16.6511L3.57241 15.9704ZM23.5465 16.773L23.8582 17.084L24.17 16.773L23.8582 16.4613L23.5465 16.773ZM1.58537 16.773L1.8971 17.084L2.20884 16.773L1.8971 16.4613L1.58537 16.773ZM21.7386 17.4956L22.2302 17.9864L22.7218 17.4956L22.2302 17.0047L21.7386 17.4956ZM3.04421 17.4956L3.53582 17.9864L4.02744 17.4956L3.53582 17.0047L3.04421 17.4956Z" fill="white"/>
</g>
<path d="M36.5295 15.1209C35.9208 15.1209 35.3747 15.0134 34.8912 14.7986C34.4078 14.5748 34.0229 14.2749 33.7364 13.8989C33.4589 13.5229 33.3067 13.1066 33.2798 12.65H35.1732C35.2091 12.9365 35.3478 13.1737 35.5895 13.3617C35.8402 13.5497 36.1491 13.6437 36.5161 13.6437C36.8742 13.6437 37.1517 13.5721 37.3487 13.4289C37.5546 13.2856 37.6575 13.1021 37.6575 12.8783C37.6575 12.6366 37.5322 12.4575 37.2815 12.3411C37.0398 12.2158 36.6504 12.0815 36.1132 11.9383C35.5582 11.804 35.1016 11.6652 34.7435 11.522C34.3944 11.3788 34.09 11.1594 33.8304 10.864C33.5797 10.5686 33.4544 10.1702 33.4544 9.66886C33.4544 9.25705 33.5708 8.88105 33.8035 8.54086C34.0452 8.20067 34.3854 7.93209 34.8241 7.73514C35.2717 7.53819 35.7954 7.43971 36.3952 7.43971C37.2815 7.43971 37.9888 7.66352 38.517 8.11114C39.0452 8.54981 39.3361 9.14514 39.3898 9.89714H37.5904C37.5635 9.60171 37.4382 9.36895 37.2144 9.19886C36.9995 9.01981 36.7086 8.93029 36.3415 8.93029C36.0013 8.93029 35.7372 8.99295 35.5492 9.11829C35.3702 9.24362 35.2807 9.41819 35.2807 9.642C35.2807 9.89267 35.406 10.0851 35.6567 10.2194C35.9073 10.3448 36.2968 10.4746 36.825 10.6089C37.3621 10.7431 37.8052 10.8819 38.1544 11.0251C38.5035 11.1684 38.8034 11.3922 39.0541 11.6966C39.3137 11.992 39.448 12.3859 39.457 12.8783C39.457 13.308 39.3361 13.693 39.0944 14.0331C38.8616 14.3733 38.5214 14.6419 38.0738 14.8389C37.6352 15.0269 37.1204 15.1209 36.5295 15.1209ZM42.8802 8.63486C43.1219 8.29467 43.4532 8.01267 43.8739 7.78886C44.3036 7.55609 44.7915 7.43971 45.3376 7.43971C45.9732 7.43971 46.5462 7.59638 47.0565 7.90971C47.5757 8.22305 47.9831 8.67067 48.2785 9.25257C48.5829 9.82552 48.7351 10.4925 48.7351 11.2534C48.7351 12.0144 48.5829 12.6903 48.2785 13.2811C47.9831 13.863 47.5757 14.3151 47.0565 14.6374C46.5462 14.9597 45.9732 15.1209 45.3376 15.1209C44.7915 15.1209 44.3081 15.009 43.8873 14.7851C43.4755 14.5613 43.1398 14.2793 42.8802 13.9391V18.5451H41.0002V7.56057H42.8802V8.63486ZM46.8148 11.2534C46.8148 10.8058 46.7208 10.4209 46.5328 10.0986C46.3537 9.76733 46.112 9.51667 45.8076 9.34657C45.5122 9.17648 45.1899 9.09143 44.8408 9.09143C44.5006 9.09143 44.1783 9.18095 43.8739 9.36C43.5785 9.53009 43.3368 9.78076 43.1488 10.112C42.9697 10.4432 42.8802 10.8327 42.8802 11.2803C42.8802 11.7279 42.9697 12.1173 43.1488 12.4486C43.3368 12.7798 43.5785 13.035 43.8739 13.214C44.1783 13.3841 44.5006 13.4691 44.8408 13.4691C45.1899 13.4691 45.5122 13.3796 45.8076 13.2006C46.112 13.0215 46.3537 12.7664 46.5328 12.4351C46.7208 12.1039 46.8148 11.71 46.8148 11.2534ZM49.6178 11.2534C49.6178 10.5014 49.7655 9.83448 50.0609 9.25257C50.3653 8.67067 50.7726 8.22305 51.2829 7.90971C51.8022 7.59638 52.3796 7.43971 53.0152 7.43971C53.5703 7.43971 54.0537 7.55162 54.4655 7.77543C54.8863 7.99924 55.222 8.28124 55.4726 8.62143V7.56057H57.3661V15H55.4726V13.9123C55.2309 14.2614 54.8952 14.5524 54.4655 14.7851C54.0447 15.009 53.5568 15.1209 53.0018 15.1209C52.3751 15.1209 51.8022 14.9597 51.2829 14.6374C50.7726 14.3151 50.3653 13.863 50.0609 13.2811C49.7655 12.6903 49.6178 12.0144 49.6178 11.2534ZM55.4726 11.2803C55.4726 10.8237 55.3831 10.4343 55.2041 10.112C55.025 9.78076 54.7833 9.53009 54.4789 9.36C54.1745 9.18095 53.8478 9.09143 53.4986 9.09143C53.1495 9.09143 52.8272 9.17648 52.5318 9.34657C52.2363 9.51667 51.9946 9.76733 51.8066 10.0986C51.6276 10.4209 51.5381 10.8058 51.5381 11.2534C51.5381 11.701 51.6276 12.095 51.8066 12.4351C51.9946 12.7664 52.2363 13.0215 52.5318 13.2006C52.8362 13.3796 53.1584 13.4691 53.4986 13.4691C53.8478 13.4691 54.1745 13.3841 54.4789 13.214C54.7833 13.035 55.025 12.7843 55.2041 12.462C55.3831 12.1308 55.4726 11.7369 55.4726 11.2803ZM61.0822 8.71543C61.3239 8.32152 61.6373 8.01267 62.0222 7.78886C62.4161 7.56505 62.8637 7.45314 63.3651 7.45314V9.42714H62.8682C62.2773 9.42714 61.8297 9.5659 61.5253 9.84343C61.2299 10.121 61.0822 10.6044 61.0822 11.2937V15H59.2022V7.56057H61.0822V8.71543ZM69.0359 15L66.5113 11.8309V15H64.6313V5.06286H66.5113V10.7163L69.0091 7.56057H71.4531L68.1765 11.2937L71.4799 15H69.0359ZM76.5826 15L75.0517 12.6903L73.6954 15H71.6811L74.1117 11.2669L71.6543 7.56057H73.776L75.2934 9.85686L76.6631 7.56057H78.6774L76.2334 11.2669L78.7043 15H76.5826Z" fill="white"/>
</svg>
